<svg width="48" height="49" viewBox="0 0 48 49" fill="none" xmlns="http://www.w3.org/2000/svg">
<rect y="0.892334" width="48" height="48" rx="24" fill="#FF4259" fill-opacity="0.1"/>
<path d="M32.8083 28.9049C33.0415 28.9049 33.2652 28.8123 33.4301 28.6474C33.595 28.4825 33.6877 28.2588 33.6877 28.0256V25.3141C33.6896 25.0851 33.6464 24.8579 33.5605 24.6456C33.4747 24.4332 33.3478 24.2399 33.1872 24.0765C33.0266 23.9132 32.8354 23.7831 32.6246 23.6937C32.4137 23.6043 32.1873 23.5573 31.9582 23.5553H31.8556L32.2953 23.1157C32.6176 22.7869 32.7981 22.3449 32.7981 21.8845C32.7981 21.4242 32.6176 20.9821 32.2953 20.6534L30.3753 18.748C30.2085 18.586 29.985 18.4953 29.7524 18.4953C29.5198 18.4953 29.2964 18.586 29.1295 18.748C28.9721 18.9055 28.7586 18.9939 28.5359 18.9939C28.3133 18.9939 28.0998 18.9055 27.9424 18.748C27.7849 18.5906 27.6965 18.3771 27.6965 18.1545C27.6965 17.9318 27.7849 17.7183 27.9424 17.5609C28.1044 17.394 28.1951 17.1706 28.1951 16.938C28.1951 16.7054 28.1044 16.4819 27.9424 16.3151L26.0224 14.3951C25.6936 14.0728 25.2516 13.8923 24.7912 13.8923C24.3309 13.8923 23.8889 14.0728 23.5601 14.3951L14.3852 23.5553H13.7843C13.5552 23.5573 13.3288 23.6043 13.1179 23.6937C12.9071 23.7831 12.7159 23.9132 12.5553 24.0765C12.3947 24.2399 12.2678 24.4332 12.1819 24.6456C12.0961 24.8579 12.0529 25.0851 12.0548 25.3141V28.0256C12.0529 28.1403 12.0738 28.2544 12.1164 28.361C12.159 28.4676 12.2224 28.5647 12.3028 28.6465C12.3833 28.7284 12.4793 28.7934 12.5852 28.8377C12.6911 28.8821 12.8047 28.905 12.9195 28.9049C13.0395 28.8891 13.1615 28.899 13.2774 28.9341C13.3932 28.9692 13.5002 29.0286 13.5913 29.1084C13.6823 29.1882 13.7552 29.2865 13.8052 29.3968C13.8551 29.507 13.881 29.6266 13.881 29.7477C13.881 29.8687 13.8551 29.9884 13.8052 30.0986C13.7552 30.2089 13.6823 30.3072 13.5913 30.3869C13.5002 30.4667 13.3932 30.5262 13.2774 30.5612C13.1615 30.5963 13.0395 30.6063 12.9195 30.5904C12.8047 30.5904 12.6911 30.6133 12.5852 30.6576C12.4793 30.702 12.3833 30.767 12.3028 30.8489C12.2224 30.9307 12.159 31.0278 12.1164 31.1344C12.0738 31.241 12.0529 31.355 12.0548 31.4698V34.1812C12.0548 34.6413 12.2365 35.0827 12.5605 35.4094C12.8844 35.736 13.3242 35.9215 13.7843 35.9254H31.9582C32.4182 35.9215 32.8581 35.736 33.182 35.4094C33.506 35.0827 33.6877 34.6413 33.6877 34.1812V31.4698C33.6877 31.2366 33.595 31.0129 33.4301 30.848C33.2652 30.6831 33.0415 30.5904 32.8083 30.5904C32.6039 30.5634 32.4163 30.4631 32.2804 30.308C32.1445 30.153 32.0696 29.9538 32.0696 29.7477C32.0696 29.5415 32.1445 29.3424 32.2804 29.1874C32.4163 29.0323 32.6039 28.932 32.8083 28.9049ZM24.1903 15.04C24.2682 14.9593 24.3616 14.8951 24.4648 14.8513C24.5681 14.8075 24.6791 14.7849 24.7912 14.7849C24.9034 14.7849 25.0144 14.8075 25.1176 14.8513C25.2209 14.8951 25.3142 14.9593 25.3921 15.04L27.2682 16.9307C26.9424 17.2576 26.7595 17.7003 26.7595 18.1618C26.7595 18.6233 26.9424 19.066 27.2682 19.3929C27.4275 19.5533 27.6171 19.6807 27.8259 19.7675C28.0346 19.8544 28.2585 19.8991 28.4847 19.8991C28.7108 19.8991 28.9347 19.8544 29.1435 19.7675C29.3522 19.6807 29.5418 19.5533 29.7011 19.3929L31.6651 21.2983C31.8209 21.4595 31.908 21.675 31.908 21.8992C31.908 22.1234 31.8209 22.3389 31.6651 22.5001L30.5805 23.5553H15.6603L24.1903 15.04ZM32.7643 31.4698V34.1812C32.7643 34.291 32.7427 34.3996 32.7007 34.5009C32.6587 34.6023 32.5972 34.6944 32.5196 34.772C32.4421 34.8496 32.35 34.9111 32.2486 34.9531C32.1473 34.9951 32.0386 35.0167 31.9289 35.0167H13.7843C13.5627 35.0167 13.3502 34.9286 13.1935 34.772C13.0369 34.6153 12.9489 34.4028 12.9489 34.1812V31.4845C13.405 31.4806 13.8411 31.2967 14.1623 30.9728C14.4835 30.6489 14.6637 30.2112 14.6637 29.755C14.6676 29.3027 14.4927 28.8672 14.177 28.5433C13.8613 28.2193 13.4304 28.0333 12.9782 28.0256V25.3141C12.9818 25.0923 13.0705 24.8804 13.226 24.7222C13.3815 24.5639 13.5919 24.4715 13.8136 24.464H31.9582C32.1798 24.464 32.3923 24.5521 32.5489 24.7087C32.7056 24.8654 32.7936 25.0779 32.7936 25.2995V27.9523C32.5653 27.9523 32.3392 27.9975 32.1284 28.0853C31.9176 28.1731 31.7263 28.3018 31.5655 28.464C31.4047 28.6261 31.2776 28.8185 31.1916 29.0301C31.1056 29.2416 31.0622 29.468 31.0642 29.6964C31.0563 29.9252 31.0944 30.1533 31.1762 30.3672C31.2579 30.5811 31.3817 30.7765 31.5401 30.9418C31.6986 31.1071 31.8885 31.2389 32.0988 31.3296C32.3091 31.4203 32.5354 31.468 32.7643 31.4698Z" fill="#FF7070"/>
<path d="M25.0561 27.8055C24.9746 27.7293 24.8672 27.6869 24.7556 27.6869C24.644 27.6869 24.5366 27.7293 24.4552 27.8055L22.9895 29.3445L21.5239 27.8055C21.4857 27.7665 21.4401 27.7356 21.3897 27.7144C21.3394 27.6933 21.2854 27.6824 21.2308 27.6824C21.1762 27.6824 21.1221 27.6933 21.0718 27.7144C21.0214 27.7356 20.9758 27.7665 20.9376 27.8055C20.8614 27.887 20.819 27.9944 20.819 28.106C20.819 28.2176 20.8614 28.325 20.9376 28.4065L22.4033 29.9747L20.9376 31.5576C20.8986 31.5958 20.8676 31.6414 20.8465 31.6917C20.8253 31.7421 20.8145 31.7961 20.8145 31.8507C20.8145 31.9053 20.8253 31.9594 20.8465 32.0097C20.8676 32.06 20.8986 32.1056 20.9376 32.1438C21.0189 32.2156 21.1224 32.2571 21.2308 32.2611C21.2861 32.2608 21.3408 32.249 21.3913 32.2262C21.4418 32.2035 21.487 32.1705 21.5239 32.1292L22.9895 30.6635L24.4552 32.1292C24.5363 32.212 24.647 32.2594 24.763 32.2611C24.8713 32.2571 24.9749 32.2156 25.0561 32.1438C25.0951 32.1056 25.1261 32.06 25.1472 32.0097C25.1684 31.9594 25.1793 31.9053 25.1793 31.8507C25.1793 31.7961 25.1684 31.7421 25.1472 31.6917C25.1261 31.6414 25.0951 31.5958 25.0561 31.5576L23.5904 29.9747L25.0561 28.4065C25.1323 28.325 25.1747 28.2176 25.1747 28.106C25.1747 27.9944 25.1323 27.887 25.0561 27.8055Z" fill="#FF7070"/>
</svg>
