<svg width="33" height="33" viewBox="0 0 33 33" fill="none" xmlns="http://www.w3.org/2000/svg">
<g id="solar:camera-minimalistic-bold">
<path id="Vector" fill-rule="evenodd" clip-rule="evenodd" d="M10.9312 5.83333C10.9312 5.09733 11.4818 4.5 12.1618 4.5H20.3672C21.0472 4.5 21.5978 5.09733 21.5978 5.83333C21.5978 6.56933 21.0472 7.16667 20.3672 7.16667H12.1618C11.4818 7.16667 10.9312 6.56933 10.9312 5.83333ZM13.3018 28.5H19.2272C23.3885 28.5 25.4698 28.5 26.9645 27.5373C27.6076 27.1239 28.163 26.5879 28.5992 25.96C29.5978 24.52 29.5978 22.5133 29.5978 18.5C29.5978 14.4867 29.5978 12.4813 28.5978 11.04C28.1621 10.4122 27.6071 9.87619 26.9645 9.46267C25.4698 8.5 23.3885 8.5 19.2272 8.5H13.3018C9.14049 8.5 7.05915 8.5 5.56449 9.46267C4.92185 9.87622 4.36686 10.4122 3.93115 11.04C2.93115 12.48 2.93115 14.4867 2.93115 18.4973V18.5C2.93115 22.5133 2.93115 24.5187 3.92982 25.96C4.36182 26.584 4.91649 27.12 5.56449 27.5373C7.05915 28.5 9.14049 28.5 13.3018 28.5ZM10.7085 18.5C10.7085 15.54 13.1965 13.1427 16.2645 13.1427C19.3325 13.1427 21.8205 15.5413 21.8205 18.5C21.8205 21.4587 19.3312 23.8573 16.2645 23.8573C13.1965 23.8573 10.7085 21.4573 10.7085 18.5ZM12.9312 18.5C12.9312 16.724 14.4245 15.2867 16.2645 15.2867C18.1045 15.2867 19.5978 16.7253 19.5978 18.5C19.5978 20.2747 18.1045 21.7133 16.2645 21.7133C14.4245 21.7133 12.9312 20.2747 12.9312 18.5ZM24.4125 13.1427C23.7992 13.1427 23.3018 13.6227 23.3018 14.2147C23.3018 14.8053 23.7992 15.2853 24.4125 15.2853H25.1538C25.7672 15.2853 26.2645 14.8053 26.2645 14.2147C26.2645 13.6227 25.7672 13.1427 25.1538 13.1427H24.4125Z" fill="#183B56" fill-opacity="0.81"/>
</g>
</svg>
